<svg xmlns="http://www.w3.org/2000/svg" viewBox="-42 -856 4624 1834" fill="#171719" role="img" aria-labelledby="title">
  <title id="title">aleksandra olesiewicz</title>
  <path d="M449 0V-19C378 -26 374 -27 374 -132V-401C374 -497 335 -550 241 -550C147 -550 39 -488 39 -429C39 -408 52 -385 90 -385C180 -385 104 -522 204 -522C259 -522 282 -477 282 -374V-266L171 -229C63 -193 24 -163 24 -102C24 -51 53 10 130 10C186 10 238 -24 282 -58V0ZM178 -43C136 -43 118 -78 118 -113C118 -153 138 -184 207 -207L282 -231V-132C274 -67 215 -43 178 -43Z M721 -19C650 -26 637 -27 637 -132V-803L629 -808C575 -761 529 -738 451 -738V-719C521 -719 545 -712 545 -647V-132C545 -27 542 -25 461 -19V0H721Z M970 10C1061 10 1125 -54 1168 -106L1156 -122C1114 -78 1062 -47 1014 -47C918 -47 864 -173 863 -314L1154 -344C1154 -503 1062 -550 982 -550C847 -550 765 -423 765 -257C765 -80 861 10 970 10ZM969 -521C999 -521 1053 -505 1059 -361H865C873 -455 908 -521 969 -521Z M1443 -19C1372 -26 1368 -27 1368 -132V-266L1399 -297L1557 0H1710V-19C1666 -19 1654 -40 1600 -132L1464 -364L1531 -433C1581 -485 1616 -504 1673 -511V-530H1487V-511C1549 -505 1533 -470 1450 -388L1368 -307V-803L1360 -808C1306 -761 1260 -738 1182 -738V-719C1252 -719 1276 -712 1276 -647V-132C1276 -27 1273 -25 1192 -19V0H1443Z M1898 10C1969 10 2056 -46 2056 -144C2056 -308 1825 -330 1825 -448C1825 -496 1862 -524 1903 -524C1957 -524 1988 -477 2016 -393L2037 -395L2022 -570H2004C1998 -547 1991 -539 1979 -539C1959 -539 1941 -550 1905 -550C1798 -550 1748 -483 1748 -408C1748 -249 1980 -240 1980 -104C1980 -42 1936 -16 1891 -16C1819 -16 1793 -86 1765 -177L1742 -175L1762 20H1782C1786 1 1795 -5 1808 -5C1829 -5 1859 10 1898 10Z M2542 0V-19C2471 -26 2467 -27 2467 -132V-401C2467 -497 2428 -550 2334 -550C2240 -550 2132 -488 2132 -429C2132 -408 2145 -385 2183 -385C2273 -385 2197 -522 2297 -522C2352 -522 2375 -477 2375 -374V-266L2264 -229C2156 -193 2117 -163 2117 -102C2117 -51 2146 10 2223 10C2279 10 2331 -24 2375 -58V0ZM2271 -43C2229 -43 2211 -78 2211 -113C2211 -153 2231 -184 2300 -207L2375 -231V-132C2367 -67 2308 -43 2271 -43Z M2820 -19C2749 -26 2745 -27 2745 -132V-347C2745 -440 2804 -494 2856 -494C2899 -494 2945 -464 2945 -334V-132C2945 -27 2942 -25 2871 -19V0H3122V-19C3041 -26 3037 -27 3037 -132V-381C3037 -495 3002 -550 2920 -550C2864 -550 2830 -525 2745 -463V-545L2737 -550C2683 -503 2637 -480 2559 -480V-461C2629 -461 2653 -454 2653 -389V-132C2653 -27 2650 -25 2569 -19V0H2820Z M3667 0V-19C3596 -26 3592 -27 3592 -132V-803L3584 -808C3530 -761 3484 -738 3406 -738V-719C3476 -719 3500 -712 3500 -647V-522C3475 -537 3434 -550 3392 -550C3272 -550 3163 -439 3163 -256C3163 -90 3242 10 3344 10C3407 10 3455 -29 3500 -93V0ZM3374 -36C3306 -36 3262 -114 3262 -268C3262 -439 3310 -518 3387 -518C3438 -518 3500 -483 3500 -381V-179C3478 -83 3427 -36 3374 -36Z M3977 -19C3876 -26 3872 -27 3872 -132V-298C3872 -431 3915 -494 3959 -494C3996 -494 3994 -442 4036 -442C4066 -442 4085 -468 4085 -495C4085 -529 4054 -550 4010 -550C3963 -550 3922 -525 3872 -459V-545L3854 -550C3810 -503 3764 -480 3686 -480V-461C3756 -461 3780 -454 3780 -389V-132C3780 -27 3777 -25 3696 -19V0H3977Z M4534 0V-19C4463 -26 4459 -27 4459 -132V-401C4459 -497 4420 -550 4326 -550C4232 -550 4124 -488 4124 -429C4124 -408 4137 -385 4175 -385C4265 -385 4189 -522 4289 -522C4344 -522 4367 -477 4367 -374V-266L4256 -229C4148 -193 4109 -163 4109 -102C4109 -51 4138 10 4215 10C4271 10 4323 -24 4367 -58V0ZM4263 -43C4221 -43 4203 -78 4203 -113C4203 -153 4223 -184 4292 -207L4367 -231V-132C4359 -67 4300 -43 4263 -43Z M239 350C97 350 6 467 6 645C6 809 81 910 226 910C366 910 459 793 459 616C459 451 381 350 239 350ZM243 884C149 884 111 745 111 593C111 441 152 376 219 376C317 376 357 517 357 665C357 819 307 884 243 884Z M762 881C691 874 678 873 678 768V97L670 92C616 139 570 162 492 162V181C562 181 586 188 586 253V768C586 873 583 875 502 881V900H762Z M1011 910C1102 910 1166 846 1209 794L1197 778C1155 822 1103 853 1055 853C959 853 905 727 904 586L1195 556C1195 397 1103 350 1023 350C888 350 806 477 806 643C806 820 902 910 1011 910ZM1010 379C1040 379 1094 395 1100 539H906C914 445 949 379 1010 379Z M1431 910C1502 910 1589 854 1589 756C1589 592 1358 570 1358 452C1358 404 1395 376 1436 376C1490 376 1521 423 1549 507L1570 505L1555 330H1537C1531 353 1524 361 1512 361C1492 361 1474 350 1438 350C1331 350 1281 417 1281 492C1281 651 1513 660 1513 796C1513 858 1469 884 1424 884C1352 884 1326 814 1298 723L1275 725L1295 920H1315C1319 901 1328 895 1341 895C1362 895 1392 910 1431 910Z M1771 275C1809 275 1838 246 1838 208C1838 170 1809 140 1771 140C1733 140 1703 170 1703 208C1703 246 1733 275 1771 275ZM1896 881C1825 874 1821 873 1821 768V355L1813 350C1759 397 1713 420 1635 420V439C1705 439 1729 446 1729 511V768C1729 873 1726 875 1645 881V900H1896Z M2151 910C2242 910 2306 846 2349 794L2337 778C2295 822 2243 853 2195 853C2099 853 2045 727 2044 586L2335 556C2335 397 2243 350 2163 350C2028 350 1946 477 1946 643C1946 820 2042 910 2151 910ZM2150 379C2180 379 2234 395 2240 539H2046C2054 445 2089 379 2150 379Z M2883 915 3035 467C3059 396 3064 391 3108 389V370C3084 372 3057 374 3028 374C3000 374 2971 372 2941 370V389C2986 390 3004 392 3004 419C3004 437 2996 466 2982 512L2899 782L2806 474C2798 446 2793 427 2793 415C2793 392 2810 390 2854 389V370C2819 372 2783 374 2747 374C2711 374 2676 372 2640 370V389C2667 389 2674 389 2699 460L2728 544L2658 782L2556 474C2545 441 2540 421 2540 409C2540 391 2551 390 2574 389V370C2540 372 2505 374 2471 374C2437 374 2405 372 2375 370V389C2415 390 2424 393 2449 460L2619 915H2643L2747 596L2859 915Z M3259 275C3297 275 3326 246 3326 208C3326 170 3297 140 3259 140C3221 140 3191 170 3191 208C3191 246 3221 275 3259 275ZM3384 881C3313 874 3309 873 3309 768V355L3301 350C3247 397 3201 420 3123 420V439C3193 439 3217 446 3217 511V768C3217 873 3214 875 3133 881V900H3384Z M3641 379C3718 379 3698 481 3763 481C3797 481 3816 452 3816 425C3816 388 3773 350 3679 350C3511 350 3433 477 3433 643C3433 818 3526 910 3639 910C3733 910 3793 846 3836 794L3824 778C3782 822 3728 853 3682 853C3585 853 3531 724 3531 582C3531 465 3570 379 3641 379Z M4266 729 4247 725C4209 824 4152 874 4062 874H3974L4251 389V370H4022C3963 370 3930 370 3920 340H3902L3868 501L3887 505C3916 421 3981 396 4063 396H4140L3863 881V900H4071C4131 900 4170 900 4187 930H4207Z"/>
</svg>
